<svg width="577" height="164" viewBox="0 0 577 164" fill="none" xmlns="http://www.w3.org/2000/svg">
<path d="M1.91406 81.8318H145.115L159.435 32.7343L180.915 130.929L202.396 16.3684L216.716 81.8318H259.676" stroke="#D92D20" stroke-opacity="0.1" stroke-width="3.06177"/>
<path d="M316.956 81.8318H359.916L374.237 32.7343L395.717 130.929L417.197 16.3684L431.517 81.8318H574.718" stroke="#D92D20" stroke-opacity="0.1" stroke-width="3.06177"/>
<path d="M288.315 88.3729C291.478 88.3729 294.043 85.4421 294.043 81.8266C294.043 78.2112 291.478 75.2803 288.315 75.2803C285.151 75.2803 282.587 78.2112 282.587 81.8266C282.587 85.4421 285.151 88.3729 288.315 88.3729Z" fill="white"/>
<path d="M1.91406 81.8318H145.115L159.435 32.7343L180.915 130.929L202.396 16.3684L216.716 81.8318H259.676" stroke="white" stroke-width="3.82721" stroke-linecap="round"/>
<path d="M316.956 81.8318H359.916L374.237 32.7343L395.717 130.929L417.197 16.3684L431.517 81.8318H574.718" stroke="white" stroke-width="3.82721" stroke-linecap="round"/>
</svg>
